<svg width="338" height="27" viewBox="0 0 338 27" fill="none" xmlns="http://www.w3.org/2000/svg">
<path d="M11.986 2.77377H6.50662L6.80245 2.23354V20.8584H5.79918V2.23354L6.13361 2.77377H0.628469V1.88626H11.986V2.77377ZM25.8504 20.8584V15.6234C25.8504 15.349 25.8504 15.036 25.8504 14.6844C25.8504 14.3328 25.8504 13.9813 25.8504 13.6297C25.8504 13.2695 25.8504 12.948 25.8504 12.665C25.8504 11.173 25.5117 10.0153 24.8342 9.19214C24.1568 8.36894 23.1364 7.95734 21.773 7.95734C20.8554 7.95734 20.0322 8.15885 19.3034 8.56188C18.5745 8.95633 18 9.4794 17.5798 10.1311C17.1596 10.7742 16.9495 11.4645 16.9495 12.202L16.2292 12.009C16.2292 11.1429 16.4693 10.3326 16.9495 9.57801C17.4297 8.81484 18.0986 8.19744 18.9561 7.72582C19.8136 7.25419 20.7997 7.01838 21.9145 7.01838C23.5351 7.01838 24.7613 7.51573 25.5931 8.51043C26.4249 9.49655 26.8408 10.86 26.8408 12.6007C26.8408 13.0552 26.8408 13.5697 26.8408 14.1442C26.8408 14.7101 26.8408 15.2632 26.8408 15.8034V20.8584H25.8504ZM15.972 20.8584V0.754357H16.9495V20.8584H15.972ZM31.702 14.4786V13.5911H43.2653L43.021 13.8226C43.021 13.7712 43.021 13.7283 43.021 13.694C43.021 13.6597 43.021 13.6254 43.021 13.5911C43.021 12.605 42.8109 11.6832 42.3907 10.8257C41.9705 9.9596 41.366 9.26074 40.5771 8.72909C39.7968 8.18887 38.8578 7.91875 37.7602 7.91875C36.654 7.91875 35.6722 8.18887 34.8147 8.72909C33.9572 9.26931 33.2841 10.0025 32.7953 10.9286C32.3065 11.8547 32.0621 12.8965 32.0621 14.0542C32.0621 15.2461 32.3065 16.3051 32.7953 17.2312C33.2841 18.1487 33.9572 18.8733 34.8147 19.4049C35.6808 19.928 36.6626 20.1896 37.7602 20.1896C38.6177 20.1896 39.3594 20.0695 39.9854 19.8294C40.6114 19.5807 41.1302 19.2677 41.5418 18.8904C41.9534 18.5131 42.2664 18.1187 42.4807 17.7071C42.7037 17.2955 42.8323 16.9182 42.8666 16.5752H43.8699C43.827 17.0382 43.6684 17.5313 43.394 18.0544C43.1196 18.5775 42.7294 19.0705 42.2235 19.5336C41.7176 19.988 41.0916 20.361 40.3456 20.6526C39.5995 20.9441 38.7335 21.0899 37.7473 21.0899C36.4697 21.0899 35.3292 20.7941 34.3259 20.2024C33.3312 19.6022 32.5423 18.7747 31.9592 17.72C31.3847 16.6652 31.0974 15.4519 31.0974 14.0799C31.0974 12.6993 31.3847 11.4817 31.9592 10.4269C32.5423 9.36364 33.3355 8.53186 34.3388 7.93162C35.3421 7.32279 36.4825 7.01838 37.7602 7.01838C39.0465 7.01838 40.1612 7.33137 41.1045 7.95734C42.0477 8.57474 42.7766 9.40222 43.2911 10.4398C43.8141 11.4774 44.0757 12.6221 44.0757 13.8741C44.0757 13.9598 44.0714 14.067 44.0628 14.1956C44.0628 14.3243 44.0585 14.4186 44.05 14.4786H31.702ZM51.8502 20.8584H50.2939V1.88626H52.8921L61.7672 19.9323L61.6257 20.0095V1.88626H63.1821V20.8584H60.5453L51.6959 2.83808L51.8502 2.7609V20.8584ZM67.898 14.6973V13.2695H78.9597L78.651 13.7069C78.651 13.6554 78.651 13.6125 78.651 13.5782C78.651 13.5354 78.651 13.4925 78.651 13.4496C78.651 12.5664 78.4624 11.7432 78.0851 10.98C77.7078 10.2168 77.159 9.60374 76.4387 9.14069C75.7269 8.67764 74.8566 8.44611 73.8276 8.44611C72.7814 8.44611 71.8596 8.68621 71.0621 9.16641C70.2647 9.63804 69.643 10.294 69.1971 11.1344C68.7512 11.9661 68.5282 12.9351 68.5282 14.0413C68.5282 15.156 68.7469 16.1379 69.1842 16.9868C69.6301 17.8271 70.2518 18.4831 71.0493 18.9548C71.8468 19.4178 72.7771 19.6493 73.8404 19.6493C74.6208 19.6493 75.2982 19.555 75.8727 19.3664C76.4558 19.1691 76.936 18.9119 77.3133 18.5946C77.6992 18.2773 77.9907 17.9429 78.188 17.5913C78.3938 17.2312 78.5138 16.8925 78.5481 16.5752H80.1302C80.0959 17.0811 79.933 17.5999 79.6414 18.1316C79.3584 18.6546 78.9511 19.1434 78.4195 19.5979C77.8964 20.0524 77.2447 20.4211 76.4644 20.704C75.6926 20.9784 74.8008 21.1156 73.789 21.1156C72.4684 21.1156 71.2937 20.8155 70.2647 20.2153C69.2442 19.615 68.4382 18.7875 67.8465 17.7328C67.2634 16.6695 66.9719 15.4476 66.9719 14.067C66.9719 12.6779 67.2677 11.4559 67.8594 10.4012C68.4511 9.33791 69.2614 8.50614 70.2904 7.90589C71.3194 7.30564 72.4899 7.00552 73.8018 7.00552C75.1395 7.00552 76.2972 7.30993 77.2747 7.91875C78.2523 8.52758 79.0069 9.35506 79.5385 10.4012C80.0702 11.4388 80.336 12.605 80.336 13.8998C80.336 14.0113 80.3317 14.1528 80.3231 14.3243C80.3231 14.4958 80.3188 14.6201 80.3103 14.6973H67.898ZM94.8063 20.8584L90.8318 7.19846H92.2724L96.0539 20.0867H95.7581L98.4078 7.19846H100.067L96.9929 20.8584H94.8063ZM85.8025 20.8584L82.6898 7.19846H84.3491L87.0373 20.0867H86.7415L90.4845 7.19846H91.9251L88.002 20.8584H85.8025ZM120.57 14.1442C120.57 14.9331 120.424 15.7348 120.132 16.5495C119.841 17.3641 119.399 18.1187 118.808 18.8133C118.216 19.5078 117.47 20.0695 116.57 20.4982C115.669 20.9184 114.61 21.1285 113.393 21.1285C111.738 21.1285 110.327 20.7126 109.161 19.8809C108.003 19.0405 107.12 17.8872 106.511 16.4208C105.902 14.9545 105.598 13.2738 105.598 11.3788C105.598 9.47511 105.902 7.79442 106.511 6.33667C107.12 4.87035 108.003 3.7213 109.161 2.88953C110.327 2.05775 111.738 1.64187 113.393 1.64187C114.773 1.64187 115.948 1.91198 116.917 2.4522C117.894 2.99243 118.67 3.687 119.245 4.53592C119.828 5.38485 120.214 6.26807 120.403 7.18559C120.514 7.68294 120.57 8.15457 120.57 8.60046H117.766C117.766 8.36036 117.744 8.09883 117.701 7.81585C117.607 7.12985 117.376 6.49959 117.007 5.92507C116.647 5.35055 116.162 4.89179 115.553 4.54879C114.953 4.20579 114.233 4.03429 113.393 4.03429C112.415 4.03429 111.553 4.30869 110.807 4.85749C110.061 5.39771 109.478 6.21233 109.058 7.30136C108.646 8.39038 108.44 9.74951 108.44 11.3788C108.44 12.9994 108.646 14.3586 109.058 15.4562C109.478 16.5452 110.061 17.3684 110.807 17.9258C111.553 18.4746 112.415 18.749 113.393 18.749C114.104 18.749 114.73 18.6203 115.27 18.3631C115.811 18.1058 116.265 17.7585 116.634 17.3212C117.003 16.8839 117.281 16.3908 117.47 15.842C117.667 15.2932 117.766 14.7273 117.766 14.1442H120.57ZM123.869 20.8584V7.19846H126.66V11.5588L125.914 11.2244C125.974 10.667 126.116 10.1354 126.339 9.62946C126.562 9.12354 126.858 8.67335 127.226 8.2789C127.604 7.87588 128.067 7.5586 128.615 7.32708C129.164 7.09556 129.799 6.97979 130.519 6.97979C131.068 6.97979 131.51 7.02267 131.844 7.10842C132.187 7.19417 132.397 7.26277 132.474 7.31422L131.883 9.93816C131.797 9.87814 131.621 9.80096 131.355 9.70664C131.098 9.61231 130.738 9.56515 130.275 9.56515C129.572 9.56515 128.988 9.68949 128.525 9.93816C128.062 10.1868 127.694 10.517 127.419 10.9286C127.145 11.3402 126.948 11.7904 126.828 12.2791C126.716 12.7593 126.66 13.2438 126.66 13.7326V20.8584H123.869ZM135.718 15.006V12.8322H145.777L145.391 13.4753C145.391 13.4239 145.391 13.3724 145.391 13.321C145.391 13.261 145.391 13.2095 145.391 13.1666C145.391 12.4721 145.241 11.8332 144.941 11.2501C144.641 10.6585 144.19 10.1868 143.59 9.83526C142.999 9.47511 142.257 9.29504 141.365 9.29504C140.473 9.29504 139.689 9.48797 139.011 9.87385C138.342 10.2511 137.819 10.7914 137.442 11.4945C137.073 12.1891 136.889 13.0252 136.889 14.0027C136.889 14.9974 137.069 15.8549 137.429 16.5752C137.789 17.2869 138.308 17.8357 138.985 18.2216C139.663 18.6075 140.473 18.8004 141.416 18.8004C142.077 18.8004 142.647 18.7361 143.127 18.6075C143.616 18.4703 144.015 18.2902 144.323 18.0672C144.641 17.8443 144.881 17.6042 145.044 17.3469C145.207 17.0811 145.301 16.8196 145.327 16.5623H148.105C148.053 17.1197 147.869 17.6728 147.552 18.2216C147.243 18.7618 146.802 19.2549 146.227 19.7008C145.661 20.1381 144.966 20.4897 144.143 20.7555C143.329 21.0127 142.39 21.1414 141.326 21.1414C139.903 21.1414 138.655 20.8412 137.583 20.241C136.512 19.6408 135.675 18.809 135.075 17.7457C134.475 16.6738 134.175 15.4476 134.175 14.067C134.175 12.6607 134.479 11.4259 135.088 10.3626C135.697 9.29933 136.542 8.47184 137.622 7.88017C138.702 7.27992 139.942 6.97979 141.339 6.97979C142.763 6.97979 143.993 7.27992 145.031 7.88017C146.077 8.48041 146.883 9.3079 147.449 10.3626C148.015 11.4173 148.298 12.6307 148.298 14.0027C148.298 14.1656 148.294 14.3543 148.285 14.5687C148.276 14.783 148.264 14.9288 148.246 15.006H135.718ZM156.4 21.1285C155.371 21.1285 154.466 20.9656 153.686 20.6397C152.914 20.3139 152.314 19.8466 151.885 19.2377C151.456 18.6289 151.242 17.8957 151.242 17.0382C151.242 16.1207 151.482 15.3618 151.962 14.7616C152.451 14.1613 153.12 13.6983 153.969 13.3724C154.826 13.038 155.799 12.8194 156.888 12.7165C158.509 12.5535 159.65 12.3949 160.31 12.2405C160.979 12.0862 161.313 11.8332 161.313 11.4817C161.313 11.4731 161.313 11.4645 161.313 11.4559C161.313 10.7614 161.017 10.234 160.426 9.87385C159.834 9.5137 158.989 9.33363 157.892 9.33363C156.734 9.33363 155.838 9.53942 155.203 9.95102C154.577 10.354 154.264 10.9972 154.264 11.8804H151.525C151.525 10.8342 151.795 9.94674 152.335 9.21786C152.884 8.48899 153.638 7.9359 154.599 7.5586C155.559 7.17273 156.661 6.97979 157.905 6.97979C159.045 6.97979 160.083 7.15558 161.017 7.50715C161.96 7.85015 162.711 8.36465 163.268 9.05065C163.826 9.73665 164.104 10.5899 164.104 11.6103C164.104 11.7904 164.104 11.9704 164.104 12.1505C164.104 12.322 164.104 12.4978 164.104 12.6779V18.1316C164.104 18.4488 164.117 18.7575 164.143 19.0577C164.169 19.3492 164.216 19.6107 164.284 19.8423C164.361 20.1081 164.452 20.3267 164.554 20.4982C164.666 20.6697 164.756 20.7898 164.825 20.8584H162.046C161.995 20.8069 161.918 20.6998 161.815 20.5368C161.72 20.3653 161.635 20.1681 161.557 19.9452C161.48 19.7308 161.42 19.4864 161.377 19.212C161.343 18.929 161.326 18.6246 161.326 18.2988L161.84 18.6589C161.583 19.1563 161.193 19.5893 160.67 19.958C160.155 20.3267 159.534 20.614 158.805 20.8198C158.085 21.0256 157.283 21.1285 156.4 21.1285ZM156.978 18.8133C157.776 18.8133 158.5 18.6889 159.152 18.4403C159.812 18.183 160.34 17.7971 160.734 17.2826C161.129 16.7596 161.326 16.1036 161.326 15.3147V13.0509L161.982 13.9127C161.433 14.127 160.76 14.3028 159.963 14.44C159.174 14.5687 158.359 14.6758 157.519 14.7616C156.361 14.8645 155.491 15.066 154.908 15.3661C154.324 15.6577 154.033 16.1464 154.033 16.8324C154.033 17.4927 154.273 17.9901 154.753 18.3245C155.242 18.6503 155.984 18.8133 156.978 18.8133ZM173.238 21.0899C172.784 21.0899 172.329 21.0428 171.875 20.9484C171.429 20.8541 171.017 20.6826 170.64 20.4339C170.271 20.1767 169.975 19.8123 169.752 19.3406C169.53 18.869 169.418 18.2516 169.418 17.4884C169.418 17.3084 169.418 17.1197 169.418 16.9225C169.418 16.7253 169.418 16.5237 169.418 16.3179V9.5137H166.138V7.19846H167.862C168.23 7.19846 168.518 7.18559 168.723 7.15987C168.938 7.12557 169.092 7.05268 169.187 6.94121C169.289 6.82116 169.354 6.63251 169.379 6.37526C169.405 6.11801 169.418 5.76643 169.418 5.32053V2.68373H172.209V7.19846H176.389V9.5137H172.209V15.5719C172.209 15.7434 172.209 15.9149 172.209 16.0864C172.209 16.2579 172.209 16.4166 172.209 16.5623C172.209 17.2483 172.291 17.7886 172.454 18.183C172.625 18.5775 173.011 18.7747 173.611 18.7747C173.868 18.7747 174.113 18.7532 174.344 18.7104C174.576 18.6675 174.752 18.6203 174.872 18.5689V20.8455C174.717 20.9056 174.499 20.9613 174.216 21.0127C173.933 21.0642 173.607 21.0899 173.238 21.0899ZM179.351 20.8584V7.19846H182.104V20.8584H179.351ZM180.74 4.36871C180.26 4.36871 179.844 4.24009 179.493 3.98284C179.15 3.71701 178.978 3.35258 178.978 2.88953C178.978 2.43505 179.15 2.07919 179.493 1.82194C179.844 1.55612 180.26 1.42321 180.74 1.42321C181.212 1.42321 181.619 1.55612 181.962 1.82194C182.314 2.07919 182.49 2.43505 182.49 2.88953C182.49 3.35258 182.314 3.71701 181.962 3.98284C181.619 4.24009 181.212 4.36871 180.74 4.36871ZM197.537 7.19846L193.112 20.8584H189.408L184.867 7.19846H187.748L191.479 19.6879H191.041L194.656 7.19846H197.537ZM200.538 15.006V12.8322H210.597L210.211 13.4753C210.211 13.4239 210.211 13.3724 210.211 13.321C210.211 13.261 210.211 13.2095 210.211 13.1666C210.211 12.4721 210.061 11.8332 209.761 11.2501C209.46 10.6585 209.01 10.1868 208.41 9.83526C207.818 9.47511 207.077 9.29504 206.185 9.29504C205.293 9.29504 204.508 9.48797 203.831 9.87385C203.162 10.2511 202.639 10.7914 202.262 11.4945C201.893 12.1891 201.709 13.0252 201.709 14.0027C201.709 14.9974 201.889 15.8549 202.249 16.5752C202.609 17.2869 203.128 17.8357 203.805 18.2216C204.483 18.6075 205.293 18.8004 206.236 18.8004C206.897 18.8004 207.467 18.7361 207.947 18.6075C208.436 18.4703 208.834 18.2902 209.143 18.0672C209.46 17.8443 209.701 17.6042 209.863 17.3469C210.026 17.0811 210.121 16.8196 210.146 16.5623H212.925C212.873 17.1197 212.689 17.6728 212.372 18.2216C212.063 18.7618 211.621 19.2549 211.047 19.7008C210.481 20.1381 209.786 20.4897 208.963 20.7555C208.148 21.0127 207.21 21.1414 206.146 21.1414C204.723 21.1414 203.475 20.8412 202.403 20.241C201.331 19.6408 200.495 18.809 199.895 17.7457C199.295 16.6738 198.995 15.4476 198.995 14.067C198.995 12.6607 199.299 11.4259 199.908 10.3626C200.517 9.29933 201.361 8.47184 202.442 7.88017C203.522 7.27992 204.761 6.97979 206.159 6.97979C207.583 6.97979 208.813 7.27992 209.851 7.88017C210.897 8.48041 211.703 9.3079 212.269 10.3626C212.835 11.4173 213.118 12.6307 213.118 14.0027C213.118 14.1656 213.113 14.3543 213.105 14.5687C213.096 14.783 213.083 14.9288 213.066 15.006H200.538ZM221.785 4.97325L223.586 3.0696V10.9286L222.686 9.79667H229.683V12.8837H222.686L223.586 11.7518V19.6751L221.785 17.7714H231.111V20.8584H219.573V1.88626H231.111V4.97325H221.785ZM240.34 21.1671C238.839 21.1671 237.523 20.867 236.391 20.2667C235.259 19.6579 234.38 18.8133 233.754 17.7328C233.137 16.6524 232.828 15.4047 232.828 13.9898C232.828 12.5578 233.137 11.3187 233.754 10.2726C234.38 9.21786 235.259 8.39895 236.391 7.81585C237.523 7.23276 238.839 6.94121 240.34 6.94121C241.463 6.94121 242.458 7.10842 243.324 7.44284C244.19 7.76869 244.915 8.20173 245.498 8.74195C246.081 9.28218 246.523 9.87385 246.823 10.517C247.123 11.1601 247.273 11.7989 247.273 12.4335C247.273 12.4421 247.273 12.4592 247.273 12.4849C247.273 12.5021 247.273 12.5192 247.273 12.5364H243.324C243.324 12.4849 243.32 12.4378 243.311 12.3949C243.311 12.3434 243.303 12.292 243.286 12.2405C243.217 11.8804 243.067 11.5417 242.835 11.2244C242.604 10.9071 242.278 10.6499 241.858 10.4527C241.446 10.2469 240.932 10.144 240.314 10.144C239.654 10.144 239.062 10.2897 238.539 10.5813C238.025 10.8728 237.618 11.3059 237.317 11.8804C237.017 12.4463 236.867 13.1495 236.867 13.9898C236.867 14.813 237.017 15.5248 237.317 16.125C237.618 16.7167 238.025 17.1712 238.539 17.4884C239.062 17.8057 239.654 17.9643 240.314 17.9643C240.992 17.9643 241.545 17.8614 241.974 17.6556C242.402 17.4413 242.724 17.1583 242.938 16.8067C243.153 16.4466 243.281 16.0521 243.324 15.6234H247.273C247.273 16.2579 247.123 16.9053 246.823 17.5656C246.531 18.2173 246.094 18.8133 245.511 19.3535C244.936 19.8937 244.216 20.331 243.35 20.6655C242.484 20.9999 241.481 21.1671 240.34 21.1671ZM256.863 21.1542C255.388 21.1542 254.089 20.8498 252.966 20.241C251.842 19.6322 250.963 18.7961 250.329 17.7328C249.703 16.6609 249.39 15.4261 249.39 14.0284C249.39 12.6393 249.703 11.4131 250.329 10.3498C250.963 9.27789 251.842 8.44611 252.966 7.85444C254.089 7.25419 255.388 6.95407 256.863 6.95407C258.338 6.95407 259.637 7.25419 260.76 7.85444C261.884 8.44611 262.758 9.27789 263.384 10.3498C264.019 11.4131 264.336 12.6393 264.336 14.0284C264.336 15.4261 264.019 16.6609 263.384 17.7328C262.758 18.7961 261.884 19.6322 260.76 20.241C259.637 20.8498 258.338 21.1542 256.863 21.1542ZM256.863 17.9901C257.558 17.9901 258.162 17.8271 258.677 17.5013C259.191 17.1754 259.59 16.7167 259.873 16.125C260.156 15.5248 260.297 14.8259 260.297 14.0284C260.297 13.231 260.156 12.5407 259.873 11.9576C259.59 11.3659 259.191 10.9114 258.677 10.5941C258.162 10.2769 257.558 10.1182 256.863 10.1182C256.177 10.1182 255.572 10.2769 255.049 10.5941C254.535 10.9114 254.136 11.3659 253.853 11.9576C253.57 12.5407 253.429 13.231 253.429 14.0284C253.429 14.8259 253.57 15.5248 253.853 16.125C254.136 16.7167 254.535 17.1754 255.049 17.5013C255.572 17.8271 256.177 17.9901 256.863 17.9901ZM276.705 20.8584V15.0574C276.705 14.7316 276.705 14.4357 276.705 14.1699C276.705 13.9041 276.705 13.664 276.705 13.4496C276.705 12.8837 276.632 12.3692 276.486 11.9061C276.341 11.4345 276.079 11.0572 275.702 10.7742C275.325 10.4912 274.78 10.3498 274.068 10.3498C273.451 10.3498 272.915 10.4912 272.46 10.7742C272.015 11.0572 271.672 11.4516 271.431 11.9576C271.191 12.4635 271.071 13.0466 271.071 13.7069L269.965 12.9094C269.965 11.726 270.222 10.6885 270.737 9.79667C271.251 8.90488 271.946 8.20602 272.821 7.70009C273.704 7.19417 274.681 6.94121 275.753 6.94121C276.877 6.94121 277.798 7.16844 278.519 7.62292C279.248 8.06882 279.788 8.69479 280.139 9.50084C280.5 10.2983 280.68 11.233 280.68 12.3049C280.68 12.7422 280.68 13.231 280.68 13.7712C280.68 14.3114 280.68 14.8645 280.68 15.4304V20.8584H276.705ZM267.084 20.8584V7.19846H271.071V20.8584H267.084ZM290.765 21.1542C289.29 21.1542 287.991 20.8498 286.867 20.241C285.744 19.6322 284.865 18.7961 284.23 17.7328C283.605 16.6609 283.292 15.4261 283.292 14.0284C283.292 12.6393 283.605 11.4131 284.23 10.3498C284.865 9.27789 285.744 8.44611 286.867 7.85444C287.991 7.25419 289.29 6.95407 290.765 6.95407C292.24 6.95407 293.539 7.25419 294.662 7.85444C295.785 8.44611 296.66 9.27789 297.286 10.3498C297.92 11.4131 298.238 12.6393 298.238 14.0284C298.238 15.4261 297.92 16.6609 297.286 17.7328C296.66 18.7961 295.785 19.6322 294.662 20.241C293.539 20.8498 292.24 21.1542 290.765 21.1542ZM290.765 17.9901C291.459 17.9901 292.064 17.8271 292.578 17.5013C293.093 17.1754 293.491 16.7167 293.774 16.125C294.057 15.5248 294.199 14.8259 294.199 14.0284C294.199 13.231 294.057 12.5407 293.774 11.9576C293.491 11.3659 293.093 10.9114 292.578 10.5941C292.064 10.2769 291.459 10.1182 290.765 10.1182C290.079 10.1182 289.474 10.2769 288.951 10.5941C288.437 10.9114 288.038 11.3659 287.755 11.9576C287.472 12.5407 287.33 13.231 287.33 14.0284C287.33 14.8259 287.472 15.5248 287.755 16.125C288.038 16.7167 288.437 17.1754 288.951 17.5013C289.474 17.8271 290.079 17.9901 290.765 17.9901ZM309.513 20.8584V15.5719C309.513 15.066 309.513 14.6287 309.513 14.26C309.513 13.8827 309.513 13.5697 309.513 13.321C309.513 12.9694 309.492 12.6221 309.449 12.2791C309.415 11.9361 309.329 11.6189 309.192 11.3273C309.063 11.0272 308.862 10.7914 308.587 10.6199C308.313 10.4398 307.94 10.3498 307.468 10.3498C307.031 10.3498 306.654 10.4441 306.336 10.6327C306.019 10.8128 305.758 11.0658 305.552 11.3916C305.355 11.7089 305.209 12.0776 305.114 12.4978C305.02 12.9094 304.973 13.3424 304.973 13.7969L303.88 12.8965C303.88 11.7389 304.09 10.7142 304.51 9.8224C304.93 8.92203 305.526 8.21888 306.298 7.71295C307.078 7.19846 308 6.94121 309.063 6.94121C310.204 6.94121 311.091 7.18559 311.726 7.67437C312.369 8.15457 312.819 8.79769 313.076 9.60374C313.342 10.4012 313.475 11.2844 313.475 12.2534C313.475 12.6221 313.475 13.1195 313.475 13.7455C313.475 14.3714 313.475 15.1217 313.475 15.9964V20.8584H309.513ZM300.986 20.8584V7.19846H304.973V20.8584H300.986ZM318.003 20.8584V15.5848C318.003 15.0617 318.003 14.6115 318.003 14.2342C318.003 13.8569 318.003 13.5439 318.003 13.2953C318.003 12.918 317.981 12.5578 317.938 12.2148C317.895 11.8632 317.805 11.546 317.668 11.263C317.531 10.98 317.325 10.7571 317.051 10.5941C316.776 10.4312 316.403 10.3498 315.932 10.3498C315.494 10.3498 315.117 10.4441 314.8 10.6327C314.491 10.8128 314.238 11.0615 314.041 11.3788C313.844 11.696 313.698 12.0562 313.604 12.4592C313.518 12.8622 313.475 13.2824 313.475 13.7197L312.382 12.8322C312.382 11.6917 312.588 10.6799 312.999 9.79667C313.419 8.91345 314.011 8.21888 314.774 7.71295C315.546 7.19846 316.468 6.94121 317.54 6.94121C318.654 6.94121 319.533 7.17702 320.176 7.64864C320.828 8.12027 321.291 8.75053 321.566 9.53942C321.849 10.3197 321.99 11.1944 321.99 12.1634C321.99 12.5492 321.99 13.0466 321.99 13.6554C321.99 14.2642 321.99 15.006 321.99 15.8806V20.8584H318.003ZM325.939 26.7623C325.51 26.7623 325.125 26.7451 324.782 26.7108C324.447 26.6851 324.237 26.6551 324.151 26.6208V23.5981C324.263 23.6496 324.456 23.6881 324.73 23.7139C325.013 23.7482 325.313 23.7653 325.631 23.7653C326.051 23.7653 326.428 23.6796 326.762 23.5081C327.105 23.3451 327.397 23.1093 327.637 22.8006C327.886 22.5005 328.079 22.1446 328.216 21.733L328.447 21.0385L323.74 7.19846H327.894L330.866 18.4017H330.403L333.258 7.19846H337.361L332.666 21.5401C332.315 22.6206 331.882 23.5509 331.367 24.3313C330.853 25.1116 330.167 25.7118 329.309 26.132C328.452 26.5522 327.328 26.7623 325.939 26.7623Z" fill="#222222"/>
</svg>
